PathFileType	4	(X/Y/Z)	Patient4_TMGait_0pt4_03_left_28.trc.trc
DataRate	CameraRate	NumFrames	NumMarkers	Units	OrigDataRate	OrigDataStartFrame	OrigNumFrames
74.866310160428	74.866310160428	4	33	mm	74.866310160428	89	       141
Frame#	Time	Sacral			L.Shoulder			Chest			R.Shoulder			Neck			R.ASIS			L.ASIS			R.Thigh.Superior			R.Thigh.Lateral			R.Thigh.Inferior			R.Patella			L.Thigh.Superior			L.Thigh.Lateral			L.Thigh.Inferior			L.Patella			L.Shank.Superior			L.Shank.Lateral			L.Shank.Inferior			R.Shank.Superior			R.Shank.Lateral			R.Shank.Inferior			R.Heel			R.Midfoot.Superior			R.Midfoot.Lateral			R.Toe			L.Heel			L.Midfoot.Lateral			L.Midfoot.Superior			L.Toe			L.Elbow			L.Wrist			R.Elbow			R.Wrist			
		X1	Y1	Z1	X2	Y2	Z2	X3	Y3	Z3	X4	Y4	Z4	X5	Y5	Z5	X6	Y6	Z6	X7	Y7	Z7	X8	Y8	Z8	X9	Y9	Z9	X10	Y10	Z10	X11	Y11	Z11	X12	Y12	Z12	X13	Y13	Z13	X14	Y14	Z14	X15	Y15	Z15	X16	Y16	Z16	X17	Y17	Z17	X18	Y18	Z18	X19	Y19	Z19	X20	Y20	Z20	X21	Y21	Z21	X22	Y22	Z22	X23	Y23	Z23	X24	Y24	Z24	X25	Y25	Z25	X26	Y26	Z26	X27	Y27	Z27	X28	Y28	Z28	X29	Y29	Z29	X30	Y30	Z30	X31	Y31	Z31	X32	Y32	Z32	X33	Y33	Z33	

89	38.045428571429	886.993888836530	997.431505029103	461.009893985846	1055.402626665877	1430.092263060865	276.991731183228	1154.427822130639	1369.950435026935	443.650639710720	1060.120556333091	1440.823858311906	613.341357493657	1028.158367641498	1494.073930458170	432.361836984071	1117.348920907636	942.449165854779	584.678189126962	1106.484791031986	965.029559467828	310.808088013846	1174.464362735520	747.326366478927	555.161491356362	1102.433507924141	633.338692346452	617.925714151684	1185.347167673629	585.706708706378	539.286397354133	1195.133487716039	496.502684210325	548.361316587667	1136.909084204321	740.822409239037	323.767075619505	1037.983834576581	634.167240409954	252.797368418745	1119.429338037491	543.791111265080	304.718206893517	1109.656545908995	462.652606710109	299.289679867342	1048.810440748856	404.192416326899	291.666123577372	915.368699816123	343.380301742871	242.055893267763	920.800456672468	212.424494865441	295.639055709551	1166.025144827070	406.908948868721	556.827405023794	1096.981263434029	303.969569405241	621.607143855744	1138.848416895653	207.784121068148	560.560166726897	1007.150568881915	43.336656178657	536.768381715512	1178.081551703060	96.647457605655	569.965365129181	1091.185932872508	37.501559850479	610.979833116834	1299.221020414626	44.439864795003	598.032552095210	744.710320325427	112.104507690831	334.249788833410	809.056961336163	77.782867713488	254.442830245789	908.925570089154	111.325751569269	274.683772294834	1009.394915344930	34.367381362782	248.129905627170	1068.509637152326	1085.975185117545	139.855371358555	1272.465793884089	923.143856707635	107.849448815985	991.400132598778	1104.345915049154	741.053574240299	1109.835832100229	871.047119225569	737.886797297907	
90	38.058785714286	887.059348149240	998.116551424925	465.685863420148	1054.743916034960	1430.535473525646	280.466648857164	1155.314022663377	1370.113422215500	446.131994926261	1062.983663634981	1441.293242934174	616.709563925957	1028.946855623468	1494.492836021415	435.968581794673	1118.164973948557	942.750049667798	587.419267225304	1104.824203638120	965.073703967613	313.782592447639	1173.304044274353	746.693079285184	558.947445830028	1099.486083492920	633.308959851101	620.811571670461	1182.375111105725	585.228752226822	542.519866052058	1191.095548196269	496.083184408839	551.088158274995	1141.038909243525	743.094756626096	326.384087751473	1046.188063532750	634.312222701838	254.492640928541	1130.425619064475	545.550221823034	306.144715344148	1121.694323617592	463.256484390745	299.919299328764	1058.876862732884	404.918474139904	292.463318223135	923.453666933527	348.664974347925	242.898272983759	924.909160348747	217.574214793683	295.939748685797	1161.788565586003	406.619580222549	559.051634060556	1092.265115363854	303.595403250971	623.249042596318	1134.018205388750	207.611169031765	561.707509003482	1001.778116405536	43.338383547851	536.906928737616	1172.895730978332	96.648017697311	570.379243888973	1085.852969009374	37.439479429222	611.174101572357	1293.939671105822	44.104103333656	598.223318044536	745.273903366069	125.156761395489	334.328921346440	807.827258201112	87.444694252237	254.556517002807	909.369909090456	115.887751062931	274.589390511043	1004.984327807836	33.620691204904	248.230665782038	1065.229628452708	1085.684603262448	144.762415308798	1261.461400332706	913.228343060350	112.825846049564	997.834912406262	1104.911071519269	746.754276183513	1125.866862947998	877.073202884339	741.353457669823	
91	38.072142857143	886.849254700444	998.676917485710	470.170972438801	1053.908724297176	1430.842708381339	283.802734498354	1156.063590713366	1370.066234149871	448.409817340579	1065.847565206489	1441.565417205736	619.919293792640	1029.702402558342	1494.793036341100	439.450639457444	1118.728271801475	942.955098140627	589.907478546253	1102.991190455157	965.032019033192	316.416180644615	1171.938807425762	746.099604440603	562.326591390658	1096.631248574076	633.298015056148	623.525940527715	1179.323891156210	584.781457402389	545.421872505941	1186.992398222606	495.683971101717	553.605036946963	1145.051358141076	745.620797677213	328.844734589311	1054.582191315026	634.703317947397	256.022272352668	1141.565994017386	547.780476634281	307.531498253727	1134.040790338418	464.388567453167	300.669882941478	1069.443139694521	405.992545287275	293.335789750410	932.244090247734	354.193350125704	243.755996792018	929.706714634558	223.130954957004	296.447469705539	1157.525951459793	406.336097639953	561.138046565483	1087.556472806966	303.246488947845	624.858765027613	1129.166224217355	207.450478251726	562.816732250937	996.376554498068	43.341473525950	537.079804990515	1167.674921962118	96.657022537133	570.784762479776	1080.494493587133	37.379089055712	611.381889434676	1288.622696372803	43.813476147847	598.409850881070	746.837332825117	138.643282086502	334.659267275461	807.538302665804	97.788668295142	254.870459460386	910.555133421660	121.101551136792	274.796034787041	1001.285338534538	33.043290766189	248.447295951663	1061.589044469755	1085.212807435682	149.665422083543	1249.479608505399	903.342262022861	117.922217231698	1004.814416591642	1105.297723020814	752.435786307459	1142.383268335610	883.494609761108	744.707454874743	
92	38.085500000000	886.363942368931	999.138051580332	474.416533676597	1052.908617772010	1431.039109346315	286.977330781963	1156.659891183195	1369.841743664302	450.476856741207	1068.648570035552	1441.647350879355	622.949648046276	1030.418839048744	1494.996166625637	442.784555391041	1119.041819976359	943.082566957540	592.123145057437	1101.011602273740	964.923460282233	318.716981548349	1170.384286503014	745.560687840579	565.214453427292	1093.920743726129	633.307858147016	626.033526587102	1176.221195846210	584.363178640439	547.929597818916	1182.875058808561	495.297788166762	555.857841927380	1148.830366914904	748.406359215029	331.139741871172	1062.927895856683	635.407019955624	257.408536080889	1152.585374365736	550.521443803851	308.845419755707	1146.442103819606	466.098139912817	301.477818228088	1080.290031931206	407.465055126423	294.238489054937	941.525875555763	359.861923423787	244.640672987392	935.159343004956	228.949228857962	297.145361573946	1153.271211026591	406.058910512209	563.044550373014	1082.886874822636	302.931460971246	626.394580169141	1124.309900590310	207.301848268164	563.857687326608	990.961115487297	43.346390056328	537.285195289969	1162.421254654146	96.660825639608	571.167693748622	1075.120020373639	37.323572857079	611.595363656012	1283.279871828567	43.570777279842	598.588956555907	749.455853002579	152.049514425462	335.249434780660	808.343668978585	108.392368334753	255.402685294825	912.593978245711	126.794232418530	275.298280801585	998.627517793492	32.756261910364	248.809554213315	1057.528376551166	1084.578705063030	154.563420536423	1236.522883426319	893.631548740947	123.138992233540	1012.364851044994	1105.495910557557	758.021251726762	1159.308695860715	890.272322368727	747.873570616753	
